<?xml version="1.0" encoding="UTF-8"?>
<svg width="6318px" height="863px" viewBox="0 0 6318 863" version="1.1" xmlns="http://www.w3.org/2000/svg" xmlns:xlink="http://www.w3.org/1999/xlink">
    <title>logo_powerstreetpro</title>
    <defs>
        <path d="M151.2,709 L151.2,519.3 L238.7,519.3 C292.833333,519.3 336,505.533333 368.2,478 C400.4,450.466667 416.5,412.666667 416.5,364.6 C416.5,315.6 400.866667,278.15 369.6,252.25 C338.333333,226.35 294.233333,213.4 237.3,213.4 L237.3,213.4 L55.3,213.4 L55.3,709 L151.2,709 Z M235.9,438.8 L151.2,438.8 L151.2,294.6 L235.2,294.6 C258.533333,294.6 277.316667,300.9 291.55,313.5 C305.783333,326.1 312.9,343.366667 312.9,365.3 C312.9,387.7 305.783333,405.55 291.55,418.85 C277.316667,432.15 258.766667,438.8 235.9,438.8 L235.9,438.8 Z M636.3,720.9 C691.366667,720.9 736.866667,703.633333 772.8,669.1 C808.733333,634.566667 826.7,589.766667 826.7,534.7 C826.7,479.166667 808.85,434.016667 773.15,399.25 C737.45,364.483333 691.833333,347.1 636.3,347.1 C581.233333,347.1 535.85,364.366667 500.15,398.9 C464.45,433.433333 446.6,478.466667 446.6,534 C446.6,589.533333 464.45,634.566667 500.15,669.1 C535.85,703.633333 581.233333,720.9 636.3,720.9 Z M636.3,641.8 C608.3,641.8 585.2,631.533333 567,611 C548.8,590.466667 539.7,564.566667 539.7,533.3 C539.7,502.5 548.683333,477.183333 566.65,457.35 C584.616667,437.516667 607.833333,427.6 636.3,427.6 C664.3,427.6 687.516667,437.866667 705.95,458.4 C724.383333,478.933333 733.6,504.6 733.6,535.4 C733.6,566.2 724.5,591.633333 706.3,611.7 C688.1,631.766667 664.766667,641.8 636.3,641.8 Z M1057.7,709 L1139.6,461.2 L1141,461.2 L1224.3,709 L1317.4,709 L1432.9,359.7 L1339.1,359.7 L1270.5,601.2 L1269.1,601.2 L1189.3,359.7 L1097.6,359.7 L1021.3,601.2 L1018.5,601.2 L949.9,359.7 L850.5,359.7 L965.3,709 L1057.7,709 Z M1651.3,720.9 C1675.1,720.9 1698.2,718.216667 1720.6,712.85 C1743,707.483333 1764,699.433333 1783.6,688.7 L1783.6,688.7 L1783.6,609.6 C1765.86667,621.733333 1745.8,631.066667 1723.4,637.6 C1701,644.133333 1677.66667,647.4 1653.4,647.4 C1621.66667,647.4 1597.05,640.05 1579.55,625.35 C1562.05,610.65 1550.96667,588.133333 1546.3,557.8 L1546.3,557.8 L1801.8,557.8 C1802.73333,548 1803.31667,541.233333 1803.55,537.5 C1803.78333,533.766667 1803.9,530.266667 1803.9,527 C1803.9,473.333333 1788.15,429.933333 1756.65,396.8 C1725.15,363.666667 1682.8,347.1 1629.6,347.1 C1575.93333,347.1 1532.65,364.25 1499.75,398.55 C1466.85,432.85 1450.4,478.233333 1450.4,534.7 C1450.4,593.966667 1468.01667,639.816667 1503.25,672.25 C1538.48333,704.683333 1587.83333,720.9 1651.3,720.9 Z M1715.7,500.4 L1544.9,500.4 C1548.63333,475.2 1558.2,455.25 1573.6,440.55 C1589,425.85 1608.13333,418.5 1631,418.5 C1655.73333,418.5 1675.56667,425.733333 1690.5,440.2 C1705.43333,454.666667 1713.83333,474.733333 1715.7,500.4 L1715.7,500.4 Z M1975.4,709 L1975.4,486.4 C1985.66667,467.733333 1997.68333,453.85 2011.45,444.75 C2025.21667,435.65 2041.43333,431.1 2060.1,431.1 C2066.16667,431.1 2072,431.333333 2077.6,431.8 C2083.2,432.266667 2088.1,432.966667 2092.3,433.9 L2092.3,433.9 L2092.3,349.9 L2079,349.9 C2052.86667,349.9 2030.93333,355.383333 2013.2,366.35 C1995.46667,377.316667 1981.93333,393.766667 1972.6,415.7 L1972.6,415.7 L1971.2,415.7 C1971.2,404.033333 1970.73333,393.883333 1969.8,385.25 C1968.86667,376.616667 1967.46667,368.1 1965.6,359.7 L1965.6,359.7 L1876,359.7 C1878.33333,371.833333 1880.08333,385.016667 1881.25,399.25 C1882.41667,413.483333 1883,428.066667 1883,443 L1883,443 L1883,709 L1975.4,709 Z M2262.4,720.2 C2303,720.2 2336.83333,710.05 2363.9,689.75 C2390.96667,669.45 2404.5,642.033333 2404.5,607.5 C2404.5,579.966667 2395.4,557.45 2377.2,539.95 C2359,522.45 2330.76667,509.033333 2292.5,499.7 C2264.5,492.7 2245.83333,486.166667 2236.5,480.1 C2227.16667,474.033333 2222.5,465.166667 2222.5,453.5 C2222.5,442.766667 2226.81667,434.483333 2235.45,428.65 C2244.08333,422.816667 2256.1,419.9 2271.5,419.9 C2291.1,419.9 2311.51667,423.516667 2332.75,430.75 C2353.98333,437.983333 2373.23333,447.9 2390.5,460.5 L2390.5,460.5 L2390.5,376.5 C2373.7,366.7 2355.38333,359.35 2335.55,354.45 C2315.71667,349.55 2293.9,347.1 2270.1,347.1 C2231.36667,347.1 2198.46667,357.25 2171.4,377.55 C2144.33333,397.85 2130.8,424.566667 2130.8,457.7 C2130.8,485.233333 2139.2,507.633333 2156,524.9 C2172.8,542.166667 2198.7,555 2233.7,563.4 C2265.43333,571.333333 2286.31667,578.8 2296.35,585.8 C2306.38333,592.8 2311.4,602.133333 2311.4,613.8 C2311.4,625.466667 2306.96667,634.566667 2298.1,641.1 C2289.23333,647.633333 2277.1,650.9 2261.7,650.9 C2240.7,650.9 2217.71667,646.233333 2192.75,636.9 C2167.78333,627.566667 2146.43333,615.666667 2128.7,601.2 L2128.7,601.2 L2128.7,688 C2147.36667,698.266667 2168.25,706.2 2191.35,711.8 C2214.45,717.4 2238.13333,720.2 2262.4,720.2 Z M2601.2,717.4 C2611.93333,717.4 2622.78333,716.583333 2633.75,714.95 C2644.71667,713.316667 2654.4,711.1 2662.8,708.3 L2662.8,708.3 L2662.8,641.1 C2659.06667,642.966667 2654.28333,644.366667 2648.45,645.3 C2642.61667,646.233333 2636.66667,646.7 2630.6,646.7 C2613.8,646.7 2601.43333,642.5 2593.5,634.1 C2585.56667,625.7 2581.6,612.866667 2581.6,595.6 L2581.6,595.6 L2581.6,430.4 L2666.3,430.4 L2666.3,359.7 L2581.6,359.7 L2581.6,272.2 L2493.4,272.2 L2493.4,359.7 L2435.3,359.7 L2435.3,430.4 L2493.4,430.4 L2493.4,610.3 C2493.4,645.3 2502.5,671.9 2520.7,690.1 C2538.9,708.3 2565.73333,717.4 2601.2,717.4 Z M2819.6,709 L2819.6,486.4 C2829.86667,467.733333 2841.88333,453.85 2855.65,444.75 C2869.41667,435.65 2885.63333,431.1 2904.3,431.1 C2910.36667,431.1 2916.2,431.333333 2921.8,431.8 C2927.4,432.266667 2932.3,432.966667 2936.5,433.9 L2936.5,433.9 L2936.5,349.9 L2923.2,349.9 C2897.06667,349.9 2875.13333,355.383333 2857.4,366.35 C2839.66667,377.316667 2826.13333,393.766667 2816.8,415.7 L2816.8,415.7 L2815.4,415.7 C2815.4,404.033333 2814.93333,393.883333 2814,385.25 C2813.06667,376.616667 2811.66667,368.1 2809.8,359.7 L2809.8,359.7 L2720.2,359.7 C2722.53333,371.833333 2724.28333,385.016667 2725.45,399.25 C2726.61667,413.483333 2727.2,428.066667 2727.2,443 L2727.2,443 L2727.2,709 L2819.6,709 Z M3167.5,720.9 C3191.3,720.9 3214.4,718.216667 3236.8,712.85 C3259.2,707.483333 3280.2,699.433333 3299.8,688.7 L3299.8,688.7 L3299.8,609.6 C3282.06667,621.733333 3262,631.066667 3239.6,637.6 C3217.2,644.133333 3193.86667,647.4 3169.6,647.4 C3137.86667,647.4 3113.25,640.05 3095.75,625.35 C3078.25,610.65 3067.16667,588.133333 3062.5,557.8 L3062.5,557.8 L3318,557.8 C3318.93333,548 3319.51667,541.233333 3319.75,537.5 C3319.98333,533.766667 3320.1,530.266667 3320.1,527 C3320.1,473.333333 3304.35,429.933333 3272.85,396.8 C3241.35,363.666667 3199,347.1 3145.8,347.1 C3092.13333,347.1 3048.85,364.25 3015.95,398.55 C2983.05,432.85 2966.6,478.233333 2966.6,534.7 C2966.6,593.966667 2984.21667,639.816667 3019.45,672.25 C3054.68333,704.683333 3104.03333,720.9 3167.5,720.9 Z M3231.9,500.4 L3061.1,500.4 C3064.83333,475.2 3074.4,455.25 3089.8,440.55 C3105.2,425.85 3124.33333,418.5 3147.2,418.5 C3171.93333,418.5 3191.76667,425.733333 3206.7,440.2 C3221.63333,454.666667 3230.03333,474.733333 3231.9,500.4 L3231.9,500.4 Z M3580.5,720.9 C3604.3,720.9 3627.4,718.216667 3649.8,712.85 C3672.2,707.483333 3693.2,699.433333 3712.8,688.7 L3712.8,688.7 L3712.8,609.6 C3695.06667,621.733333 3675,631.066667 3652.6,637.6 C3630.2,644.133333 3606.86667,647.4 3582.6,647.4 C3550.86667,647.4 3526.25,640.05 3508.75,625.35 C3491.25,610.65 3480.16667,588.133333 3475.5,557.8 L3475.5,557.8 L3731,557.8 C3731.93333,548 3732.51667,541.233333 3732.75,537.5 C3732.98333,533.766667 3733.1,530.266667 3733.1,527 C3733.1,473.333333 3717.35,429.933333 3685.85,396.8 C3654.35,363.666667 3612,347.1 3558.8,347.1 C3505.13333,347.1 3461.85,364.25 3428.95,398.55 C3396.05,432.85 3379.6,478.233333 3379.6,534.7 C3379.6,593.966667 3397.21667,639.816667 3432.45,672.25 C3467.68333,704.683333 3517.03333,720.9 3580.5,720.9 Z M3644.9,500.4 L3474.1,500.4 C3477.83333,475.2 3487.4,455.25 3502.8,440.55 C3518.2,425.85 3537.33333,418.5 3560.2,418.5 C3584.93333,418.5 3604.76667,425.733333 3619.7,440.2 C3634.63333,454.666667 3643.03333,474.733333 3644.9,500.4 L3644.9,500.4 Z M3933.3,717.4 C3944.03333,717.4 3954.88333,716.583333 3965.85,714.95 C3976.81667,713.316667 3986.5,711.1 3994.9,708.3 L3994.9,708.3 L3994.9,641.1 C3991.16667,642.966667 3986.38333,644.366667 3980.55,645.3 C3974.71667,646.233333 3968.76667,646.7 3962.7,646.7 C3945.9,646.7 3933.53333,642.5 3925.6,634.1 C3917.66667,625.7 3913.7,612.866667 3913.7,595.6 L3913.7,595.6 L3913.7,430.4 L3998.4,430.4 L3998.4,359.7 L3913.7,359.7 L3913.7,272.2 L3825.5,272.2 L3825.5,359.7 L3767.4,359.7 L3767.4,430.4 L3825.5,430.4 L3825.5,610.3 C3825.5,645.3 3834.6,671.9 3852.8,690.1 C3871,708.3 3897.83333,717.4 3933.3,717.4 Z M4313.2,709 L4313.2,532.85 L4394.45,532.85 C4444.71667,532.85 4484.8,520.066667 4514.7,494.5 C4544.6,468.933333 4559.55,433.833333 4559.55,389.2 C4559.55,343.7 4545.03333,308.925 4516,284.875 C4486.96667,260.825 4446.01667,248.8 4393.15,248.8 L4393.15,248.8 L4224.15,248.8 L4224.15,709 L4313.2,709 Z M4391.85,458.1 L4313.2,458.1 L4313.2,324.2 L4391.2,324.2 C4412.86667,324.2 4430.30833,330.05 4443.525,341.75 C4456.74167,353.45 4463.35,369.483333 4463.35,389.85 C4463.35,410.65 4456.74167,427.225 4443.525,439.575 C4430.30833,451.925 4413.08333,458.1 4391.85,458.1 L4391.85,458.1 Z M4701.25,709 L4701.25,502.3 C4710.78333,484.966667 4721.94167,472.075 4734.725,463.625 C4747.50833,455.175 4762.56667,450.95 4779.9,450.95 C4785.53333,450.95 4790.95,451.166667 4796.15,451.6 C4801.35,452.033333 4805.9,452.683333 4809.8,453.55 L4809.8,453.55 L4809.8,375.55 L4797.45,375.55 C4773.18333,375.55 4752.81667,380.641667 4736.35,390.825 C4719.88333,401.008333 4707.31667,416.283333 4698.65,436.65 L4698.65,436.65 L4697.35,436.65 C4697.35,425.816667 4696.91667,416.391667 4696.05,408.375 C4695.18333,400.358333 4693.88333,392.45 4692.15,384.65 L4692.15,384.65 L4608.95,384.65 C4611.11667,395.916667 4612.74167,408.158333 4613.825,421.375 C4614.90833,434.591667 4615.45,448.133333 4615.45,462 L4615.45,462 L4615.45,709 L4701.25,709 Z M5013.9,720.05 C5065.03333,720.05 5107.28333,704.016667 5140.65,671.95 C5174.01667,639.883333 5190.7,598.283333 5190.7,547.15 C5190.7,495.583333 5174.125,453.658333 5140.975,421.375 C5107.825,389.091667 5065.46667,372.95 5013.9,372.95 C4962.76667,372.95 4920.625,388.983333 4887.475,421.05 C4854.325,453.116667 4837.75,494.933333 4837.75,546.5 C4837.75,598.066667 4854.325,639.883333 4887.475,671.95 C4920.625,704.016667 4962.76667,720.05 5013.9,720.05 Z M5013.9,646.6 C4987.9,646.6 4966.45,637.066667 4949.55,618 C4932.65,598.933333 4924.2,574.883333 4924.2,545.85 C4924.2,517.25 4932.54167,493.741667 4949.225,475.325 C4965.90833,456.908333 4987.46667,447.7 5013.9,447.7 C5039.9,447.7 5061.45833,457.233333 5078.575,476.3 C5095.69167,495.366667 5104.25,519.2 5104.25,547.8 C5104.25,576.4 5095.8,600.016667 5078.9,618.65 C5062,637.283333 5040.33333,646.6 5013.9,646.6 Z" id="path-1"></path>
    </defs>
    <g id="Page-1" stroke="none" stroke-width="1" fill="none" fill-rule="evenodd">
        <g id="logo_powerstreetpro" transform="translate(0.000000, -51.000000)" fill-rule="nonzero">
            <g id="logo" transform="translate(0.000000, 51.000000)">
                <path d="M845.494837,431.33 C845.494837,193.283555 656.39909,0 422.747419,0 C189.095747,0 0,193.283555 0,431.33 C0,669.376443 189.095747,862.66 422.747419,862.66 C656.39909,862.66 845.494837,669.376443 845.494837,431.33 Z" id="Oval-2" fill="#6F9824"></path>
                <path d="M421.089484,331.898302 L333.034707,477.15623 L359.384823,496.278294 L321.407056,496.278294 L288.042033,551.036241 L145.710145,627.660975 L143.381668,628.404021 C142.615333,628.04008 142.9985,627.221211 143.381668,627.221211 L320.994414,471.954908 L94.881539,499.068507 C94.4836347,498.704568 94.4836347,497.916028 94.881539,497.506595 L314.038456,431.208687 L93.7320373,364.971435 C92.9362286,364.607493 92.9362286,363.788628 93.7320373,363.379192 L320.994414,388.17267 L142.9985,237.68309 C142.9985,237.334313 143.720623,236.849059 144.148002,236.849059 L344.279192,349.397794 L238.421877,141.905965 C238.805044,141.481368 239.217686,141.102263 239.527167,141.481368 L379.574788,329.108088 L363.349128,86.4201358 C363.702822,85.6164328 364.469157,86.0107021 364.822851,86.4201358 L424.184297,320.312847 L492.07858,93.1985359 C492.844916,92.8042663 493.65546,93.1985359 493.65546,93.6231334 L465.286348,327.485517 L612.673097,149.488068 C613.498378,149.06347 613.498378,149.942995 613.498378,150.291771 L500.581947,355.023715 L705.001662,248.525497 C705.414301,247.661138 706.873286,248.085735 706.519592,248.85911 L524.647794,390.583779 L757.009242,374.964647 C757.39241,375.37408 757.39241,376.147454 756.5966,376.147454 L530.085822,432.497645 L748.063763,511.048229 L749.552219,512.291696 C749.552219,512.685964 749.183788,513.019577 748.461667,513.019577 L517.293931,476.746797 L696.085654,635.637348 C696.439347,636.395557 696.085654,637.138603 695.275107,637.138603 L558.808627,558.936792 L656.914172,727.016851 C713.917667,680.311099 755.4471,614.801728 775.622328,546.577966 C807.395732,443.643336 792.702743,329.108088 740.28252,238.865898 C693.374008,156.675902 612.673097,93.6231334 527.374176,68.4353874 C452.877625,44.8853756 359.03113,48.14568 288.85258,78.0949866 C199.589352,111.986987 115.837839,194.601581 80.9548842,285.99625 C43.7139774,374.964647 43.7139774,486.315411 80.1590752,574.904701 C114.260958,666.344863 195.772417,747.715993 283.797719,782.89695 L363.422817,529.457578 L540.873454,529.457578 L502.026192,503.557114 L369.936659,503.557114 L421.089484,331.898302 L421.089484,331.898302 Z M35.2106124,433.89275 C35.2106124,213.693316 208.741154,35.2106124 422.754786,35.2106124 C636.694733,35.2106124 810.284225,213.693316 810.284225,433.89275 C810.284225,654.10735 636.694733,827.449388 422.754786,827.449388 C208.741154,827.449388 35.2106124,654.10735 35.2106124,433.89275 L35.2106124,433.89275 Z" id="Fill-26" fill="#FFFFFE"></path>
            </g>
            <g id="PowerstreetPro" transform="translate(1127.000000, 0.000000)">
                <use fill="#000000" xlink:href="#path-1"></use>
                <use fill="#FFFFFF" xlink:href="#path-1"></use>
            </g>
        </g>
    </g>
</svg>