<?xml version="1.0" encoding="UTF-8"?>
<svg width="30px" height="30px" viewBox="0 0 30 30" version="1.1" xmlns="http://www.w3.org/2000/svg" xmlns:xlink="http://www.w3.org/1999/xlink">
    <title>Group 2 Copy 4</title>
    <g id="Page-1" stroke="none" stroke-width="1" fill="none" fill-rule="evenodd">
        <g id="Group-2-Copy-4">
            <path d="M29.4030616,15 C29.4030616,6.72165936 22.8270381,0 14.7015308,0 C6.57602349,0 0,6.72165936 0,15 C0,23.2783406 6.57602349,30 14.7015308,30 C22.8270381,30 29.4030616,23.2783406 29.4030616,15 Z" id="Oval-2" fill="#6F9824" fill-rule="nonzero"></path>
            <path d="M14.6438742,11.5421476 L11.5816674,16.5936602 L12.4980232,17.2586521 L11.1773024,17.2586521 L10.0169951,19.1629231 L5.06723896,21.8276369 L4.98626345,21.8534772 C4.95961328,21.8408207 4.97293837,21.8123436 4.98626345,21.8123436 L11.1629523,16.4127782 L3.29961534,17.355685 C3.28577776,17.3430286 3.28577776,17.3156062 3.29961534,17.3013677 L10.9210508,14.9957812 L3.25964009,12.6923041 C3.23196492,12.6796476 3.23196492,12.6511706 3.25964009,12.636932 L11.1629523,13.4991539 L4.97293837,8.26570457 C4.97293837,8.25357545 4.99805102,8.23670016 5.01291362,8.23670016 L11.9727074,12.1507127 L8.29139673,4.93494419 C8.30472182,4.92017832 8.31907191,4.9069945 8.32983447,4.92017832 L13.2001526,11.4451147 L12.6358865,3.00536025 C12.6481866,2.97741055 12.6748368,2.99112172 12.6871369,3.00536025 L14.7514999,11.13925 L17.1126022,3.24108696 C17.1392524,3.22737578 17.16744,3.24108696 17.16744,3.25585283 L16.1808713,11.3886879 L21.3064161,5.1986206 C21.3351162,5.18385472 21.3351162,5.21444119 21.3351162,5.2265703 L17.4083166,12.3463606 L24.5172488,8.64276183 C24.5315988,8.61270272 24.5823367,8.6274686 24.5700366,8.65436359 L18.2452343,13.583003 L26.3258726,13.0398296 C26.3391977,13.0540681 26.3391977,13.0809631 26.3115225,13.0809631 L18.434348,15.0406062 L26.0147832,17.7722937 L26.066546,17.8155367 C26.066546,17.8292478 26.0537334,17.8408496 26.0286208,17.8408496 L17.9894952,16.5794217 L24.2071843,22.1050245 C24.2194844,22.1313921 24.2071843,22.1572324 24.1789966,22.1572324 L19.4332168,19.4376739 L22.8449507,25.2828525 C24.8273132,23.6586059 26.2715473,21.3804417 26.9731642,19.0078814 C28.0781211,15.4282105 27.5671554,11.4451147 25.7441815,8.30683809 C24.1128837,5.44858584 21.3064161,3.25585283 18.3400474,2.37991981 C15.7493436,1.56094089 12.4857231,1.67432175 10.0451828,2.71584355 C6.94095074,3.89447709 4.02839493,6.76749522 2.8152998,9.94585063 C1.52020416,13.0398296 1.52020416,16.9121813 2.78762462,19.9929764 C3.97355708,23.1729139 6.80821241,26.0026891 9.86939415,27.2261476 L12.6384491,18.4125001 L18.8095004,18.4125001 L17.4585419,17.5117815 L12.8649755,17.5117815 L14.6438742,11.5421476 L14.6438742,11.5421476 Z M1.2244898,15.0891226 C1.2244898,7.43143242 7.25921524,1.2244898 14.701787,1.2244898 C22.1417963,1.2244898 28.1785718,7.43143242 28.1785718,15.0891226 C28.1785718,22.7473402 22.1417963,28.7755102 14.701787,28.7755102 C7.25921524,28.7755102 1.2244898,22.7473402 1.2244898,15.0891226 L1.2244898,15.0891226 Z" id="Fill-26" fill="#FFFFFE"></path>
        </g>
    </g>
</svg>