<?xml version="1.0" encoding="UTF-8"?>
<svg width="6186px" height="863px" viewBox="0 0 6186 863" version="1.1" xmlns="http://www.w3.org/2000/svg" xmlns:xlink="http://www.w3.org/1999/xlink">
    <title>logo 2</title>
    <g id="Page-1" stroke="none" stroke-width="1" fill="none" fill-rule="evenodd">
        <g id="Group" transform="translate(0.000000, -0.000000)">
            <g id="logo" fill-rule="nonzero">
                <path d="M845.494837,431.33 C845.494837,193.283555 656.39909,0 422.747419,0 C189.095747,0 0,193.283555 0,431.33 C0,669.376443 189.095747,862.66 422.747419,862.66 C656.39909,862.66 845.494837,669.376443 845.494837,431.33 Z" id="Oval-2" fill="#6F9824"></path>
                <path d="M421.089484,331.898302 L333.034707,477.15623 L359.384823,496.278294 L321.407056,496.278294 L288.042033,551.036241 L145.710145,627.660975 L143.381668,628.404021 C142.615333,628.04008 142.9985,627.221211 143.381668,627.221211 L320.994414,471.954908 L94.881539,499.068507 C94.4836347,498.704568 94.4836347,497.916028 94.881539,497.506595 L314.038456,431.208687 L93.7320373,364.971435 C92.9362286,364.607493 92.9362286,363.788628 93.7320373,363.379192 L320.994414,388.17267 L142.9985,237.68309 C142.9985,237.334313 143.720623,236.849059 144.148002,236.849059 L344.279192,349.397794 L238.421877,141.905965 C238.805044,141.481368 239.217686,141.102263 239.527167,141.481368 L379.574788,329.108088 L363.349128,86.4201358 C363.702822,85.6164328 364.469157,86.0107021 364.822851,86.4201358 L424.184297,320.312847 L492.07858,93.1985359 C492.844916,92.8042663 493.65546,93.1985359 493.65546,93.6231334 L465.286348,327.485517 L612.673097,149.488068 C613.498378,149.06347 613.498378,149.942995 613.498378,150.291771 L500.581947,355.023715 L705.001662,248.525497 C705.414301,247.661138 706.873286,248.085735 706.519592,248.85911 L524.647794,390.583779 L757.009242,374.964647 C757.39241,375.37408 757.39241,376.147454 756.5966,376.147454 L530.085822,432.497645 L748.063763,511.048229 L749.552219,512.291696 C749.552219,512.685964 749.183788,513.019577 748.461667,513.019577 L517.293931,476.746797 L696.085654,635.637348 C696.439347,636.395557 696.085654,637.138603 695.275107,637.138603 L558.808627,558.936792 L656.914172,727.016851 C713.917667,680.311099 755.4471,614.801728 775.622328,546.577966 C807.395732,443.643336 792.702743,329.108088 740.28252,238.865898 C693.374008,156.675902 612.673097,93.6231334 527.374176,68.4353874 C452.877625,44.8853756 359.03113,48.14568 288.85258,78.0949866 C199.589352,111.986987 115.837839,194.601581 80.9548842,285.99625 C43.7139774,374.964647 43.7139774,486.315411 80.1590752,574.904701 C114.260958,666.344863 195.772417,747.715993 283.797719,782.89695 L363.422817,529.457578 L540.873454,529.457578 L502.026192,503.557114 L369.936659,503.557114 L421.089484,331.898302 L421.089484,331.898302 Z M35.2106124,433.89275 C35.2106124,213.693316 208.741154,35.2106124 422.754786,35.2106124 C636.694733,35.2106124 810.284225,213.693316 810.284225,433.89275 C810.284225,654.10735 636.694733,827.449388 422.754786,827.449388 C208.741154,827.449388 35.2106124,654.10735 35.2106124,433.89275 L35.2106124,433.89275 Z" id="Fill-26" fill="#FFFFFE"></path>
            </g>
            <text id="Powerstreet-Pro" font-family="FidelitySans-Bold, Fidelity Sans" font-size="650" font-weight="bold" fill="#FFFFFF">
                <tspan x="1127" y="658">Powerstreet Pro</tspan>
            </text>
        </g>
    </g>
</svg>